<?xml version="1.0" encoding="UTF-8"?>
<svg id="Capa_1" data-name="Capa 1" xmlns="http://www.w3.org/2000/svg" viewBox="0 0 25.26 25.16">
  <defs>
    <style>
      .cls-1 {
        fill: #3a75eb;
      }

      .cls-2 {
        fill: #2e2252;
      }
    </style>
  </defs>
  <path class="cls-1" d="M8,2.93c-.15-.54-.23-1.1-.26-1.67l-.03-.5H1.02c0,4.06,2.99,7.35,6.69,7.39h0s5.35,0,5.35,0c-3.04,0-4.21-2.2-5.05-5.22Z"/>
  <path class="cls-1" d="M18.49,2.93c-.15-.54-.23-1.1-.26-1.66l-.03-.5h0s-6.69,0-6.69,0c0,4.06,2.99,7.35,6.69,7.39h0s6.05,0,6.05,0c-3.04,0-4.91-2.2-5.75-5.22Z"/>
  <path class="cls-2" d="M24.14,8.15c-2.21.02-3.58.81-5.36,2.17-.93.71-1.79,1.58-2.55,2.57,0,0,0,0,0,.01-.83,1.09-1.54,2.34-2.11,3.7-.28.68-.53,1.4-.74,2.13-.22-.74-.48-1.45-.79-2.13-.61-1.36-1.36-2.61-2.25-3.7,0,0,0,0,0-.01-.81-1-1.72-1.87-2.72-2.57-1.91-1.36-4.11-2.15-6.47-2.17-.04,0-.08,0-.12,0v8.66h.06c3.33.03,6.02,3.35,6.07,7.44,0,.01,0,.03,0,.04v.1h16.3c.44,0,.81-.36.81-.8v-15.45s-.07,0-.11,0Z"/>
</svg>